<svg width="60" height="60" viewBox="0 0 60 60" fill="none" xmlns="http://www.w3.org/2000/svg">
<g clip-path="url(#clip0_123_2)">
<path d="M59.1509 35.8979C58.4684 35.4767 57.5872 35.5541 56.9962 36.0943C52.6923 39.9981 47.125 42.1491 41.3228 42.1491C28.4446 42.1491 17.9668 31.6713 17.9668 18.7931C17.9668 12.9904 20.1178 7.42357 24.0216 3.11967C24.56 2.5264 24.641 1.6475 24.218 0.96497C23.795 0.284275 22.967 -0.0315824 22.202 0.184482C9.12874 3.88642 0 15.9714 0 29.5725C0 46.4146 13.7013 60.1154 30.543 60.1154C44.144 60.1154 56.2295 50.9867 59.9314 37.9139C60.1507 37.1416 59.8316 36.3204 59.1509 35.8979Z" fill="url(#paint0_linear_123_2)"/>
<path d="M35.4257 27.6828L39.682 29.8092L41.8083 34.0659C42.1118 34.6747 42.7348 35.0588 43.4155 35.0588C44.0967 35.0588 44.7174 34.6747 45.0228 34.0659L47.1514 29.8092L51.4058 27.6828C52.0146 27.3775 52.3987 26.7563 52.3987 26.0756C52.3987 25.3949 52.0146 24.7738 51.4058 24.4684L47.1514 22.3417L45.0228 18.0854C44.4121 16.8677 42.4158 16.8677 41.8083 18.0854L39.682 22.3417L35.4257 24.4684C34.8169 24.7719 34.4324 25.3949 34.4324 26.0756C34.4324 26.7563 34.8169 27.3793 35.4257 27.6828Z" fill="url(#paint1_linear_123_2)"/>
<path d="M26.1131 15.2791L28.1994 16.3213L29.2416 18.4077C29.3903 18.7062 29.6957 18.8944 30.0294 18.8944C30.3632 18.8944 30.6675 18.7062 30.8171 18.4077L31.8605 16.3213L33.9458 15.2791C34.2442 15.1294 34.4325 14.8249 34.4325 14.4913C34.4325 14.1576 34.2442 13.8532 33.9458 13.7035L31.8605 12.6611L30.8171 10.5748C30.5178 9.97799 29.5393 9.97799 29.2416 10.5748L28.1994 12.6611L26.1131 13.7035C25.8147 13.8523 25.6262 14.1576 25.6262 14.4913C25.6262 14.8249 25.8147 15.1303 26.1131 15.2791Z" fill="url(#paint2_linear_123_2)"/>
</g>
<defs>
<linearGradient id="paint0_linear_123_2" x1="30" y1="0.117187" x2="30" y2="60.1154" gradientUnits="userSpaceOnUse">
<stop stop-color="#39ACFF"/>
<stop offset="1" stop-color="#507FFE"/>
</linearGradient>
<linearGradient id="paint1_linear_123_2" x1="43.4155" y1="17.1721" x2="43.4155" y2="35.0588" gradientUnits="userSpaceOnUse">
<stop stop-color="#39ACFF"/>
<stop offset="1" stop-color="#507FFE"/>
</linearGradient>
<linearGradient id="paint2_linear_123_2" x1="30.0294" y1="10.1272" x2="30.0294" y2="18.8944" gradientUnits="userSpaceOnUse">
<stop stop-color="#39ACFF"/>
<stop offset="1" stop-color="#507FFE"/>
</linearGradient>
<clipPath id="clip0_123_2">
<rect width="60" height="60" fill="white"/>
</clipPath>
</defs>
</svg>
